<mxfile host="Electron" agent="Mozilla/5.0 (Windows NT 10.0; Win64; x64) AppleWebKit/537.36 (KHTML, like Gecko) draw.io/24.7.5 Chrome/126.0.6478.183 Electron/31.3.0 Safari/537.36" version="24.7.5">
  <diagram name="Page-1" id="H87IobkTWHEMrD9JpNee">
    <mxGraphModel dx="1502" dy="677" grid="1" gridSize="10" guides="1" tooltips="1" connect="1" arrows="1" fold="1" page="1" pageScale="1" pageWidth="1169" pageHeight="827" math="0" shadow="0">
      <root>
        <mxCell id="0" />
        <mxCell id="1" parent="0" />
        <mxCell id="2TDnNefzhjLwZpWFoh8B-17" style="edgeStyle=orthogonalEdgeStyle;rounded=0;orthogonalLoop=1;jettySize=auto;html=1;endArrow=block;endFill=1;" edge="1" parent="1" source="2TDnNefzhjLwZpWFoh8B-3" target="2TDnNefzhjLwZpWFoh8B-4">
          <mxGeometry relative="1" as="geometry" />
        </mxCell>
        <mxCell id="2TDnNefzhjLwZpWFoh8B-23" value="HTTPS" style="edgeLabel;html=1;align=center;verticalAlign=middle;resizable=0;points=[];fontSize=12;" vertex="1" connectable="0" parent="2TDnNefzhjLwZpWFoh8B-17">
          <mxGeometry x="-0.0954" y="-2" relative="1" as="geometry">
            <mxPoint as="offset" />
          </mxGeometry>
        </mxCell>
        <mxCell id="2TDnNefzhjLwZpWFoh8B-44" style="edgeStyle=orthogonalEdgeStyle;rounded=0;orthogonalLoop=1;jettySize=auto;html=1;endArrow=block;endFill=1;" edge="1" parent="1" source="2TDnNefzhjLwZpWFoh8B-3" target="2TDnNefzhjLwZpWFoh8B-43">
          <mxGeometry relative="1" as="geometry" />
        </mxCell>
        <mxCell id="2TDnNefzhjLwZpWFoh8B-3" value="settlement-service" style="rounded=0;whiteSpace=wrap;html=1;fontSize=14;fillColor=#d5e8d4;strokeColor=#82b366;" vertex="1" parent="1">
          <mxGeometry x="400" y="315" width="150" height="60" as="geometry" />
        </mxCell>
        <mxCell id="2TDnNefzhjLwZpWFoh8B-42" style="edgeStyle=orthogonalEdgeStyle;rounded=0;orthogonalLoop=1;jettySize=auto;html=1;endArrow=block;endFill=1;" edge="1" parent="1" source="2TDnNefzhjLwZpWFoh8B-4" target="2TDnNefzhjLwZpWFoh8B-40">
          <mxGeometry relative="1" as="geometry" />
        </mxCell>
        <mxCell id="2TDnNefzhjLwZpWFoh8B-4" value="account-service" style="rounded=0;whiteSpace=wrap;html=1;fontSize=14;fillColor=#d5e8d4;strokeColor=#82b366;" vertex="1" parent="1">
          <mxGeometry x="150" y="315" width="150" height="60" as="geometry" />
        </mxCell>
        <mxCell id="2TDnNefzhjLwZpWFoh8B-19" style="edgeStyle=orthogonalEdgeStyle;rounded=0;orthogonalLoop=1;jettySize=auto;html=1;endArrow=block;endFill=1;dashed=1;" edge="1" parent="1" source="2TDnNefzhjLwZpWFoh8B-5" target="2TDnNefzhjLwZpWFoh8B-18">
          <mxGeometry relative="1" as="geometry" />
        </mxCell>
        <mxCell id="2TDnNefzhjLwZpWFoh8B-41" style="edgeStyle=orthogonalEdgeStyle;rounded=0;orthogonalLoop=1;jettySize=auto;html=1;endArrow=block;endFill=1;" edge="1" parent="1" source="2TDnNefzhjLwZpWFoh8B-5" target="2TDnNefzhjLwZpWFoh8B-38">
          <mxGeometry relative="1" as="geometry" />
        </mxCell>
        <mxCell id="2TDnNefzhjLwZpWFoh8B-5" value="transfer-service" style="rounded=0;whiteSpace=wrap;html=1;fontSize=14;fillColor=#d5e8d4;strokeColor=#82b366;" vertex="1" parent="1">
          <mxGeometry x="870" y="315" width="150" height="60" as="geometry" />
        </mxCell>
        <mxCell id="2TDnNefzhjLwZpWFoh8B-10" style="edgeStyle=orthogonalEdgeStyle;rounded=0;orthogonalLoop=1;jettySize=auto;html=1;endArrow=block;endFill=1;" edge="1" parent="1" source="2TDnNefzhjLwZpWFoh8B-7" target="2TDnNefzhjLwZpWFoh8B-4">
          <mxGeometry relative="1" as="geometry" />
        </mxCell>
        <mxCell id="2TDnNefzhjLwZpWFoh8B-21" value="HTTPS" style="edgeLabel;html=1;align=center;verticalAlign=middle;resizable=0;points=[];fontSize=12;" vertex="1" connectable="0" parent="2TDnNefzhjLwZpWFoh8B-10">
          <mxGeometry x="-0.12" y="2" relative="1" as="geometry">
            <mxPoint as="offset" />
          </mxGeometry>
        </mxCell>
        <mxCell id="2TDnNefzhjLwZpWFoh8B-13" style="edgeStyle=orthogonalEdgeStyle;rounded=0;orthogonalLoop=1;jettySize=auto;html=1;entryX=0.5;entryY=0;entryDx=0;entryDy=0;endArrow=block;endFill=1;" edge="1" parent="1" source="2TDnNefzhjLwZpWFoh8B-7" target="2TDnNefzhjLwZpWFoh8B-5">
          <mxGeometry relative="1" as="geometry" />
        </mxCell>
        <mxCell id="2TDnNefzhjLwZpWFoh8B-25" value="HTTPS" style="edgeLabel;html=1;align=center;verticalAlign=middle;resizable=0;points=[];fontSize=12;" vertex="1" connectable="0" parent="2TDnNefzhjLwZpWFoh8B-13">
          <mxGeometry x="-0.137" y="1" relative="1" as="geometry">
            <mxPoint x="-35" y="1" as="offset" />
          </mxGeometry>
        </mxCell>
        <mxCell id="2TDnNefzhjLwZpWFoh8B-7" value="MiniBank Customer WebApp" style="rounded=0;whiteSpace=wrap;html=1;fontSize=14;fillColor=#ffe6cc;strokeColor=#d79b00;" vertex="1" parent="1">
          <mxGeometry x="150" y="160" width="150" height="60" as="geometry" />
        </mxCell>
        <mxCell id="2TDnNefzhjLwZpWFoh8B-12" style="edgeStyle=orthogonalEdgeStyle;rounded=0;orthogonalLoop=1;jettySize=auto;html=1;entryX=0.5;entryY=1;entryDx=0;entryDy=0;endArrow=block;endFill=1;" edge="1" parent="1" source="2TDnNefzhjLwZpWFoh8B-9" target="2TDnNefzhjLwZpWFoh8B-4">
          <mxGeometry relative="1" as="geometry" />
        </mxCell>
        <mxCell id="2TDnNefzhjLwZpWFoh8B-22" value="HTTPS" style="edgeLabel;html=1;align=center;verticalAlign=middle;resizable=0;points=[];fontSize=12;" vertex="1" connectable="0" parent="2TDnNefzhjLwZpWFoh8B-12">
          <mxGeometry x="0.0165" y="2" relative="1" as="geometry">
            <mxPoint as="offset" />
          </mxGeometry>
        </mxCell>
        <mxCell id="2TDnNefzhjLwZpWFoh8B-14" style="edgeStyle=orthogonalEdgeStyle;rounded=0;orthogonalLoop=1;jettySize=auto;html=1;entryX=0.5;entryY=1;entryDx=0;entryDy=0;endArrow=block;endFill=1;" edge="1" parent="1" source="2TDnNefzhjLwZpWFoh8B-9" target="2TDnNefzhjLwZpWFoh8B-5">
          <mxGeometry relative="1" as="geometry" />
        </mxCell>
        <mxCell id="2TDnNefzhjLwZpWFoh8B-26" value="HTTPS" style="edgeLabel;html=1;align=center;verticalAlign=middle;resizable=0;points=[];fontSize=12;" vertex="1" connectable="0" parent="2TDnNefzhjLwZpWFoh8B-14">
          <mxGeometry x="-0.1615" y="-1" relative="1" as="geometry">
            <mxPoint as="offset" />
          </mxGeometry>
        </mxCell>
        <mxCell id="2TDnNefzhjLwZpWFoh8B-9" value="MiniBank Employee WebApp" style="rounded=0;whiteSpace=wrap;html=1;fontSize=14;fillColor=#ffe6cc;strokeColor=#d79b00;" vertex="1" parent="1">
          <mxGeometry x="150" y="480" width="150" height="60" as="geometry" />
        </mxCell>
        <mxCell id="2TDnNefzhjLwZpWFoh8B-20" style="edgeStyle=orthogonalEdgeStyle;rounded=0;orthogonalLoop=1;jettySize=auto;html=1;endArrow=block;endFill=1;dashed=1;" edge="1" parent="1" source="2TDnNefzhjLwZpWFoh8B-18" target="2TDnNefzhjLwZpWFoh8B-3">
          <mxGeometry relative="1" as="geometry" />
        </mxCell>
        <mxCell id="2TDnNefzhjLwZpWFoh8B-18" value="Message Broker" style="rounded=0;whiteSpace=wrap;html=1;fontSize=14;fillColor=#f5f5f5;fontColor=#333333;strokeColor=#666666;" vertex="1" parent="1">
          <mxGeometry x="640" y="315" width="150" height="60" as="geometry" />
        </mxCell>
        <mxCell id="2TDnNefzhjLwZpWFoh8B-38" value="MongoDB" style="sketch=0;shadow=0;dashed=0;html=1;strokeColor=none;fillColor=#505050;labelPosition=center;verticalLabelPosition=bottom;verticalAlign=top;outlineConnect=0;align=center;shape=mxgraph.office.databases.database_mini_2;" vertex="1" parent="1">
          <mxGeometry x="1060" y="324" width="35" height="42" as="geometry" />
        </mxCell>
        <mxCell id="2TDnNefzhjLwZpWFoh8B-40" value="PostgreSQL" style="sketch=0;shadow=0;dashed=0;html=1;strokeColor=none;fillColor=#505050;labelPosition=center;verticalLabelPosition=bottom;verticalAlign=top;outlineConnect=0;align=center;shape=mxgraph.office.databases.database;" vertex="1" parent="1">
          <mxGeometry x="70" y="324" width="35" height="42" as="geometry" />
        </mxCell>
        <mxCell id="2TDnNefzhjLwZpWFoh8B-43" value="PostgreSQL" style="sketch=0;shadow=0;dashed=0;html=1;strokeColor=none;fillColor=#505050;labelPosition=center;verticalLabelPosition=bottom;verticalAlign=top;outlineConnect=0;align=center;shape=mxgraph.office.databases.database;" vertex="1" parent="1">
          <mxGeometry x="457.5" y="404" width="35" height="42" as="geometry" />
        </mxCell>
      </root>
    </mxGraphModel>
  </diagram>
</mxfile>
